<?xml version="1.0" encoding="UTF-8" standalone="no"?>
<svg width="87px" height="28px" viewBox="0 0 87 28" version="1.1" xmlns="http://www.w3.org/2000/svg" xmlns:xlink="http://www.w3.org/1999/xlink">
    <!-- Generator: Sketch 40.2 (33826) - http://www.bohemiancoding.com/sketch -->
    <title>logo</title>
    <desc>Created with Sketch.</desc>
    <defs></defs>
    <g id="Page-1" stroke="none" stroke-width="1" fill="none" fill-rule="evenodd">
        <g id="logo">
            <path d="M17.044323,9.842871 C17.044323,12.5082577 16.1639432,14.5509143 14.4031573,15.970902 C12.6423713,17.3908897 10.1362235,18.1008729 6.88463874,18.1008729 L4.20825744,18.1008729 L4.20825744,27.6508244 L0,27.6508244 L0,2.12609117 L7.41287189,2.12609117 C10.6292409,2.12609117 13.0385469,2.77787903 14.6408622,4.0814743 C16.2431774,5.38506956 17.044323,7.30551593 17.044323,9.842871 L17.044323,9.842871 Z M4.20825744,14.5916586 L6.44444444,14.5916586 C8.60434191,14.5916586 10.1890255,14.2192084 11.1985428,13.4742968 C12.2080601,12.7293852 12.7128112,11.5654783 12.7128112,9.98254122 C12.7128112,8.51599655 12.2608829,7.42192407 11.3570128,6.70029098 C10.4531426,5.97865789 9.04453497,5.61784675 7.13114754,5.61784675 L4.20825744,5.61784675 L4.20825744,14.5916586 Z M39.0188221,17.9612027 C39.0188221,21.1154377 38.2030035,23.5771008 36.5713418,25.3462658 C34.9396802,27.1154308 32.6683003,28 29.7571342,28 C27.9376553,28 26.3294949,27.5926326 24.9326047,26.7778855 C23.5357145,25.9631385 22.4616512,24.7934121 21.7103825,23.2686712 C20.9591138,21.7439303 20.5834851,19.9747918 20.5834851,17.9612027 C20.5834851,14.8302462 21.3934345,12.3860418 23.0133576,10.628516 C24.6332807,8.87099024 26.9163989,7.99224054 29.8627808,7.99224054 C32.6800384,7.99224054 34.9103338,8.89135861 36.5537341,10.6896217 C38.1971343,12.4878848 39.0188221,14.9117209 39.0188221,17.9612027 L39.0188221,17.9612027 Z M24.8445659,17.9612027 C24.8445659,22.419033 26.5055491,24.6479146 29.8275653,24.6479146 C33.1143658,24.6479146 34.7577413,22.419033 34.7577413,17.9612027 C34.7577413,13.5499294 33.1026274,11.3443259 29.7923497,11.3443259 C28.0550409,11.3443259 26.7960978,11.9146403 26.0154827,13.0552861 C25.2348676,14.195932 24.8445659,15.8312212 24.8445659,17.9612027 L24.8445659,17.9612027 Z M47.9107468,27.6508244 L43.7729205,27.6508244 L43.7729205,8.3414161 L47.9107468,8.3414161 L47.9107468,27.6508244 Z M70.95932,27.6508244 L66.8038859,27.6508244 L66.8038859,15.7788555 C66.8038859,14.2890323 66.5016221,13.1775012 65.8970856,12.4442289 C65.2925491,11.7109566 64.3329351,11.3443259 63.0182149,11.3443259 C61.2691675,11.3443259 59.9896823,11.8564449 59.1797207,12.8806984 C58.3697592,13.9049518 57.9647845,15.6217144 57.9647845,18.0310378 L57.9647845,27.6508244 L53.8269581,27.6508244 L53.8269581,8.3414161 L57.0667881,8.3414161 L57.6478446,10.8729389 L57.8591378,10.8729389 C58.4460665,9.95343866 59.2794927,9.24345546 60.3594414,8.74296799 C61.4393901,8.24248052 62.6367066,7.99224054 63.9514268,7.99224054 C68.623379,7.99224054 70.95932,10.349152 70.95932,15.0630456 L70.95932,27.6508244 Z M83.9714633,24.6828322 C84.9809806,24.6828322 85.9904827,24.5257048 87,24.2114452 L87,27.3016489 C86.5421956,27.499516 85.9523412,27.6653728 85.2304189,27.7992241 C84.5084967,27.9330754 83.7601739,28 82.9854281,28 C79.0647446,28 77.1044323,25.9515239 77.1044323,21.8545102 L77.1044323,11.4490786 L74.4456588,11.4490786 L74.4456588,9.63336566 L77.2981178,8.13191077 L78.7067395,4.04655674 L81.2598664,4.04655674 L81.2598664,8.3414161 L86.8063145,8.3414161 L86.8063145,11.4490786 L81.2598664,11.4490786 L81.2598664,21.7846751 C81.2598664,22.7740108 81.5093074,23.5043623 82.0081967,23.9757517 C82.5070861,24.4471411 83.1615017,24.6828322 83.9714633,24.6828322 L83.9714633,24.6828322 Z" id="Point" fill="#424242"></path>
            <circle id="Oval" fill="#7266BA" cx="46.0264117" cy="3.01212415" r="2.5"></circle>
        </g>
    </g>
</svg>