<svg width="200" height="200" viewBox="0 0 200 200" xmlns="http://www.w3.org/2000/svg">
  <path d="M82.403 198.457C35.566 190.142 0 149.225 0 100 0 44.772 44.772 0 100 0s100 44.772 100 100c0 55.076-44.524 99.752-99.542 99.999.146-.636.25-1.286.31-1.951.192-6.912.24-14.4.144-22.464a739.525 739.525 0 0 0-.72-24.768 818.578 818.578 0 0 0 20.16-14.544c7.104-5.28 13.248-11.088 18.432-17.424 5.184-6.336 8.784-13.344 10.8-21.024 2.016-7.68 1.2-16.32-2.448-25.92-4.032-8.064-9.792-13.92-17.28-17.568-7.488-3.648-15.504-5.712-24.048-6.192-8.544-.48-17.04.24-25.488 2.16-8.448 1.92-15.552 4.32-21.312 7.2-4.416 2.496-8.592 5.52-12.528 9.072-3.936 3.552-6.096 7.536-6.48 11.952 0 1.152.384 2.304 1.152 3.456.768 1.152 1.92 2.016 3.456 2.592 1.536.576 3.36.672 5.472.288 2.112-.384 4.416-1.536 6.912-3.456 8.64-5.568 17.664-9.552 27.072-11.952 9.408-2.4 20.064-2.256 31.968.432 5.184 1.344 9.024 3.36 11.52 6.048 2.496 2.688 3.936 5.664 4.32 8.928.576 4.224 0 8.304-1.728 12.24s-4.176 7.728-7.344 11.376c-3.168 3.648-6.864 7.008-11.088 10.08a118.266 118.266 0 0 1-13.248 8.352 304.445 304.445 0 0 0-1.44-14.4 524.397 524.397 0 0 0-1.728-12.672c-.576-1.728-1.44-3.552-2.592-5.472a26.78 26.78 0 0 0-4.032-5.184c-1.536-1.536-3.12-2.688-4.752-3.456-1.632-.768-3.12-.864-4.464-.288-1.344.96-2.304 1.968-2.88 3.024a88.468 88.468 0 0 0-1.44 2.736c-.384.96-.576 1.824-.576 2.592a633.158 633.158 0 0 1 5.904 51.984c1.248 17.376 1.776 34.416 1.584 51.12 0 .482.118 1.003.355 1.56z" fill="#7872FF" fill-rule="evenodd"/>
</svg>
